<?xml version="1.0" standalone="no"?>
<!DOCTYPE svg PUBLIC "-//W3C//DTD SVG 20010904//EN"
 "http://www.w3.org/TR/2001/REC-SVG-20010904/DTD/svg10.dtd">
<svg version="1.0" xmlns="http://www.w3.org/2000/svg"
 width="1024.000000pt" height="1024.000000pt" viewBox="0 0 1024.000000 1024.000000"
 preserveAspectRatio="xMidYMid meet">

<g transform="translate(0.000000,1024.000000) scale(0.100000,-0.100000)"
fill="#000000" stroke="none">
<path d="M0 5120 l0 -5120 5120 0 5120 0 0 5120 0 5120 -5120 0 -5120 0 0
-5120z m6160 3745 c0 -8 -7 -15 -15 -15 -16 0 -20 12 -8 23 11 12 23 8 23 -8z
m-565 -203 c978 -153 1817 -733 2312 -1599 219 -382 358 -822 403 -1272 15
-153 12 -495 -5 -651 -16 -136 -57 -373 -77 -443 -9 -29 -26 -50 -68 -82 -123
-95 -194 -192 -277 -380 l-48 -110 -5 343 c-5 317 -6 345 -23 357 -21 15 -73
22 -447 65 -146 16 -284 32 -307 35 l-43 6 0 178 c0 156 3 186 23 254 13 43
25 76 28 73 2 -3 4 28 4 68 0 65 -3 77 -29 111 l-30 38 -3 331 c-1 182 0 379
3 438 l6 106 36 7 c48 9 89 31 105 55 18 29 30 24 25 -9 -2 -17 -1 -28 3 -26
9 6 64 -205 88 -340 28 -157 32 -231 35 -578 2 -284 1 -309 -15 -318 -10 -5
-23 -24 -29 -44 -31 -93 82 -165 151 -96 36 37 39 86 7 127 -22 27 -23 34 -26
348 -4 406 -32 630 -108 868 -20 60 -23 81 -14 97 6 12 7 21 1 21 -5 0 -12 -6
-14 -12 -3 -7 -6 1 -6 19 -1 17 4 35 11 39 7 5 8 3 3 -6 -5 -8 -4 -11 2 -7 5
3 8 20 5 38 -3 22 -1 30 7 25 7 -5 9 -1 5 9 -8 20 20 14 121 -25 209 -82 354
-214 445 -405 69 -145 98 -293 102 -533 2 -104 0 -132 -10 -132 -26 0 -72 -57
-72 -89 0 -68 44 -111 115 -111 76 0 122 93 75 153 -18 23 -20 40 -20 185 0
333 -60 546 -206 739 -30 39 -73 88 -95 108 -68 61 -186 133 -275 167 -66 25
-84 36 -84 51 0 11 -26 53 -57 95 l-58 74 -50 -5 c-49 -4 -51 -4 -80 37 -84
114 -280 140 -410 54 -47 -31 -101 -108 -92 -132 3 -7 -1 -60 -9 -117 -8 -57
-12 -122 -8 -144 9 -57 42 -122 73 -144 30 -21 93 -41 134 -41 l27 0 0 -416 0
-416 -262 7 c-226 6 -268 5 -300 -8 -20 -8 -40 -12 -44 -9 -4 4 -4 1 0 -5 4
-7 3 -13 -1 -13 -5 0 -15 6 -23 13 -12 10 -12 9 -2 -4 10 -13 9 -19 -3 -29
-13 -11 -15 33 -15 404 l0 417 -25 24 c-13 14 -31 25 -40 25 -13 0 -15 34 -15
284 0 255 -2 286 -17 305 -19 23 -50 27 -408 60 -171 16 -195 21 -195 37 0 7
-12 16 -27 20 -53 11 -52 10 -41 51 23 85 -11 172 -86 214 -35 20 -55 22 -185
24 -88 1 -155 7 -168 13 -12 7 -47 12 -78 12 -36 0 -57 4 -59 13 -24 83 -36
107 -81 154 -41 44 -60 57 -105 68 -30 8 -69 15 -87 15 -27 0 -33 5 -44 38
-27 84 -91 154 -179 198 -65 33 -181 44 -257 25 -65 -16 -147 -72 -185 -126
-28 -39 -37 -45 -67 -45 -20 0 -52 -4 -71 -10 -19 -5 -38 -9 -42 -7 -4 1 -14
-7 -22 -18 -9 -11 -16 -17 -16 -13 0 4 -20 -14 -44 -40 -48 -52 -91 -129 -101
-184 -6 -33 -10 -36 -51 -42 -93 -12 -192 -89 -210 -162 -4 -16 -16 -23 -47
-28 -91 -15 -173 -93 -184 -174 -4 -33 -10 -42 -31 -47 -14 -3 -37 -14 -51
-24 -14 -10 -48 -19 -76 -20 -27 -2 -61 -9 -76 -16 -15 -8 -30 -11 -34 -7 -5
4 -5 2 -2 -4 3 -6 -10 -26 -30 -45 -20 -19 -33 -29 -30 -24 8 15 -70 17 -110
4 -18 -6 -47 -27 -65 -48 -30 -35 -39 -39 -98 -45 -94 -11 -126 -49 -79 -92
20 -18 42 -19 595 -16 316 2 574 0 574 -3 0 -9 -59 -95 -83 -122 -11 -13 -41
-27 -71 -33 -102 -21 -146 -70 -144 -162 0 -31 -7 -54 -25 -81 -44 -65 -44
-88 2 -180 23 -45 41 -89 41 -98 0 -9 -41 -72 -91 -140 -128 -172 -306 -442
-340 -514 -33 -68 -35 -97 -15 -176 25 -93 47 -239 41 -260 -5 -13 -42 -37
-108 -68 -100 -47 -167 -101 -167 -136 0 -8 -13 -28 -30 -45 l-30 -31 0 -353
0 -352 -40 5 -40 6 -44 108 c-25 59 -76 164 -115 232 -39 68 -118 215 -175
327 l-105 203 -21 140 c-43 283 -37 662 15 970 78 457 280 942 548 1315 390
545 956 957 1609 1173 182 60 465 120 673 141 22 2 173 3 335 1 237 -2 321 -7
425 -23z m-2397 -33 c-2 -6 -8 -10 -13 -10 -5 0 -11 4 -13 10 -2 6 4 11 13 11
9 0 15 -5 13 -11z m4630 -232 l32 -33 -35 -34 -35 -34 -30 29 c-16 16 -30 33
-30 39 0 11 50 66 60 66 3 0 20 -15 38 -33z m-5699 -341 l23 -24 -23 -31 c-12
-17 -25 -31 -28 -31 -3 0 -18 12 -33 27 l-28 27 27 28 c32 34 34 34 62 4z
m2184 -66 c95 -36 167 -118 186 -214 7 -30 9 -31 72 -37 77 -6 128 -33 160
-85 19 -31 21 -45 16 -110 -6 -83 -2 -87 56 -58 42 22 124 22 165 0 56 -29 35
-39 -88 -40 -139 -1 -165 -12 -258 -110 l-63 -66 -376 -2 c-341 -3 -377 -5
-387 -20 -8 -14 -3 -24 27 -53 33 -32 40 -35 77 -29 46 8 70 -7 70 -42 0 -19
5 -24 25 -24 51 0 85 -28 114 -94 19 -42 42 -73 70 -95 22 -18 41 -36 41 -39
0 -4 -405 -8 -900 -9 -567 -1 -898 2 -895 8 4 5 28 9 55 9 57 0 100 14 100 33
0 42 104 84 129 53 21 -25 47 -19 76 19 47 62 66 75 109 75 23 0 48 -4 56 -10
11 -6 21 -1 41 23 23 28 33 32 75 32 43 0 49 2 46 20 -18 114 47 195 156 195
54 0 55 0 66 53 8 36 72 106 113 124 18 7 57 13 87 13 l54 0 7 49 c15 111 104
232 189 261 22 7 58 10 85 6 l46 -5 30 52 c31 54 100 109 159 126 56 16 152
12 209 -9z m-265 -777 c-15 -2 -42 -2 -60 0 -18 2 -6 4 27 4 33 0 48 -2 33 -4z
m-38 -38 c13 -14 21 -25 18 -25 -2 0 -15 11 -28 25 -13 14 -21 25 -18 25 2 0
15 -11 28 -25z m1650 -49 c221 -21 231 -23 165 -30 -38 -4 -137 -14 -220 -23
-100 -10 -185 -13 -255 -9 -179 11 -497 43 -450 45 25 1 142 10 260 20 269 23
224 24 500 -3z m1343 -26 l22 -9 -22 0 c-21 -1 -34 -21 -14 -21 5 0 12 -7 15
-16 3 -8 2 -12 -3 -9 -5 3 -12 1 -15 -4 -4 -5 4 -12 16 -14 13 -2 -53 -5 -146
-6 l-169 -1 32 30 c32 31 60 45 116 61 34 9 135 3 168 -11z m-2140 -25 l67 -7
0 -449 0 -450 -42 6 c-24 4 -83 14 -133 23 l-90 17 -3 441 -2 440 67 -7 c38
-4 98 -10 136 -14z m2212 -16 c41 -36 43 -44 13 -46 -18 -2 -20 0 -8 8 12 8 9
15 -20 39 -19 17 -31 30 -27 30 3 0 22 -14 42 -31z m-1047 14 c-10 -2 -28 -2
-40 0 -13 2 -5 4 17 4 22 1 32 -1 23 -4z m29 -295 c-1 -57 -3 -11 -3 102 0
113 2 159 3 103 2 -57 2 -149 0 -205z m-969 276 l22 -4 0 -451 0 -451 -67 7
c-38 4 -71 10 -75 14 -6 5 -10 414 -8 843 l0 57 53 -5 c28 -3 62 -7 75 -10z
m250 -20 l62 -6 0 -459 0 -459 -32 0 c-34 0 -151 15 -200 26 l-28 6 0 455 0
455 68 -6 c37 -4 95 -9 130 -12z m320 9 c-10 -2 -26 -2 -35 0 -10 3 -2 5 17 5
19 0 27 -2 18 -5z m-90 -10 c-10 -2 -26 -2 -35 0 -10 3 -2 5 17 5 19 0 27 -2
18 -5z m-95 -10 c-7 -2 -21 -2 -30 0 -10 3 -4 5 12 5 17 0 24 -2 18 -5z m1516
-42 c7 -5 10 -14 6 -20 -5 -8 -36 -10 -108 -6 -117 8 -145 14 -107 25 35 11
192 12 209 1z m101 -58 c0 -5 -5 -25 -9 -47 -8 -34 -7 -39 12 -44 20 -5 20 -6
-4 -15 -13 -6 -40 -16 -59 -23 -32 -12 -33 -12 -15 2 19 15 18 16 -15 9 -26
-4 -31 -3 -20 4 9 7 10 11 3 11 -6 0 -15 -4 -18 -10 -3 -5 -40 -10 -81 -10
l-74 0 0 65 0 65 140 0 c77 0 140 -3 140 -7z m-140 -157 c38 -5 60 -17 60 -31
0 -9 -37 -12 -152 -13 -84 0 -143 2 -130 5 12 2 20 9 16 14 -3 6 5 13 17 17
l24 6 -25 8 c-23 7 134 2 190 -6z m121 -104 c-11 -16 -42 -40 -68 -53 -26 -13
-49 -27 -51 -31 -11 -25 -216 15 -218 42 -1 8 -2 25 -3 37 0 12 -9 24 -18 26
-10 3 71 5 180 6 l198 1 -20 -28z m-1014 -14 c-3 -8 -6 -5 -6 6 -1 11 2 17 5
13 3 -3 4 -12 1 -19z m1174 -86 c-11 -20 -24 29 -14 54 6 15 8 13 14 -11 5
-15 4 -35 0 -43z m14 -32 c-4 -12 -9 -19 -12 -17 -3 3 -2 15 2 27 4 12 9 19
12 17 3 -3 2 -15 -2 -27z m-1495 -405 l0 -343 -105 -1 -105 -2 0 339 c0 186 3
341 6 345 3 3 50 5 105 5 l99 0 0 -343z m200 5 c3 -184 4 -337 2 -340 -2 -3
-42 -7 -88 -9 l-84 -3 0 343 0 344 82 0 83 0 5 -335z m173 331 c16 -1 17 -24
17 -341 l0 -340 -57 0 c-32 0 -68 3 -80 6 l-23 6 0 337 0 336 63 -1 c34 -1 70
-2 80 -3z m-1808 -30 c94 -20 172 -50 243 -95 l42 -26 0 -120 c0 -66 -3 -120
-7 -120 -12 0 -420 -48 -523 -61 -49 -6 -96 -17 -105 -23 -13 -9 -16 -94 -22
-596 -4 -322 -10 -562 -14 -535 -4 28 -8 170 -8 317 -1 228 -3 269 -17 282 -8
9 -17 16 -19 16 -11 0 -379 61 -381 63 -12 11 -34 154 -34 215 0 382 314 696
700 701 30 0 96 -8 145 -18z m2625 -367 c0 -380 1 -374 -41 -374 -5 0 -9 151
-9 368 l0 367 25 0 24 0 1 -361z m392 97 c14 -111 25 -286 23 -366 -7 -242 -9
-242 -15 0 -4 149 -12 302 -18 340 -23 139 -24 142 -11 121 6 -10 16 -53 21
-95z m638 -1 c7 -28 9 -57 6 -65 -3 -8 -1 -15 5 -15 7 0 8 -12 4 -30 -4 -16
-3 -35 1 -41 10 -17 14 -62 20 -231 5 -142 5 -148 -17 -170 -12 -13 -19 -17
-15 -10 10 16 0 15 -29 -4 -15 -10 -26 -27 -26 -43 -2 -25 -2 -25 -6 -3 -6 29
31 72 60 72 19 0 20 5 13 193 -10 256 -10 257 -17 257 -5 0 -29 113 -29 139 0
28 19 -3 30 -49z m-3135 -165 c94 -8 222 -19 285 -25 63 -5 129 -10 145 -11
34 -1 23 -4 -196 -39 -149 -24 -89 -26 -679 25 -91 8 -192 16 -225 16 -71 2
-66 3 185 34 107 13 222 22 255 20 33 -3 137 -12 230 -20z m-654 -60 c85 -8
269 -23 409 -35 140 -11 270 -23 288 -26 l32 -5 0 -404 0 -405 -27 0 c-34 0
-807 69 -850 76 l-33 5 0 404 c0 329 2 405 13 405 7 0 83 -7 168 -15z m1219
-400 l0 -406 -52 5 c-40 4 -46 3 -23 -3 24 -7 19 -9 -30 -8 -80 1 -168 -4
-180 -11 -5 -4 1 -9 15 -14 16 -4 6 -5 -25 -3 -34 3 -42 2 -25 -3 21 -7 16
-10 -32 -16 -70 -9 -95 2 -101 47 -3 28 -4 27 -5 -10 -2 -32 2 -43 16 -46 13
-4 11 -5 -5 -6 l-23 -1 2 373 c2 352 3 359 8 142 3 -126 7 -205 9 -175 4 63
11 229 11 278 0 26 4 32 23 33 21 0 21 1 2 9 -11 5 -15 9 -10 10 6 1 18 3 28
5 12 2 17 -3 17 -22 0 -21 -3 -23 -22 -18 -23 7 -23 7 -3 -8 11 -8 22 -12 25
-9 5 7 30 15 30 10 0 -2 -7 -25 -15 -52 -23 -75 -19 -126 14 -189 16 -31 26
-59 23 -64 -4 -4 -3 -5 2 -1 5 4 17 -3 28 -15 11 -12 16 -16 12 -8 -6 11 -3
12 12 5 17 -8 122 -10 159 -3 8 1 17 9 19 16 3 8 10 12 15 9 4 -3 16 3 26 14
15 16 21 18 34 7 14 -10 14 -10 3 5 -10 13 -10 17 0 21 7 2 10 8 5 12 -4 5
-14 0 -22 -11 -18 -23 -19 -14 -3 21 6 14 14 21 18 15 3 -5 7 26 9 70 1 63 -2
88 -19 122 -11 23 -15 37 -8 30 7 -7 16 -12 20 -12 4 0 8 56 8 125 0 93 -3
125 -12 125 -7 0 -31 -3 -53 -7 -31 -5 -35 -8 -20 -14 11 -4 -8 -4 -43 -1 -58
4 -63 3 -60 -14 2 -11 -2 -18 -9 -16 -21 4 -14 -16 7 -23 12 -4 27 -1 35 5 14
11 19 7 16 -12 0 -5 7 -8 16 -8 15 0 14 -2 -3 -15 -19 -14 -18 -14 4 -15 13 0
22 6 22 15 0 8 5 15 10 15 14 0 13 -13 -2 -28 -23 -23 3 -25 27 -2 14 13 28
20 32 17 3 -4 0 -7 -8 -7 -11 0 -11 -2 1 -10 13 -9 13 -10 0 -11 -8 -1 -19 -1
-23 0 -5 1 -6 -3 -2 -8 3 -6 11 -8 18 -5 7 2 13 -4 14 -16 2 -18 0 -19 -13 -5
-9 8 -20 13 -25 10 -13 -9 -11 -25 3 -22 7 1 12 -2 13 -8 0 -5 5 -17 10 -25 5
-8 -7 -1 -26 15 -28 24 -32 31 -20 37 10 4 5 6 -14 6 -62 -3 -116 2 -111 11 9
15 -17 29 -48 25 -26 -3 -27 -2 -10 12 19 14 19 14 0 8 -16 -6 -17 -4 -7 14 7
12 14 22 17 22 3 0 2 -4 -1 -10 -3 -5 -2 -10 4 -10 5 0 13 5 17 11 4 8 9 7 15
-2 6 -10 9 -7 9 10 0 17 4 22 16 17 8 -3 12 -2 9 4 -3 6 -20 10 -36 10 -33 0
-72 -17 -65 -28 7 -12 -83 -7 -95 5 -7 7 28 15 128 28 76 10 156 21 178 25 22
4 52 8 68 9 l27 1 0 -405z m-140 355 c0 -5 8 -7 18 -4 14 5 14 4 2 -4 -10 -8
-18 -8 -27 -1 -7 6 -18 7 -24 3 -8 -4 -9 -3 -5 4 9 14 36 16 36 2z m-271 -40
c21 -19 31 -34 25 -40 -9 -8 -44 17 -73 53 -24 30 10 20 48 -13z m55 -2 c-9
-14 16 -37 34 -31 15 4 15 3 2 -6 -14 -10 -7 -16 13 -12 5 1 5 -4 2 -10 -5 -7
-19 1 -41 22 -37 36 -41 46 -19 46 8 0 12 -4 9 -9z m-79 -38 c-3 -5 0 -10 8
-10 8 0 19 -6 25 -12 7 -10 3 -18 -16 -33 l-27 -20 19 30 c10 17 13 24 5 18
-20 -19 -29 -16 -29 12 0 14 5 25 11 25 5 0 7 -4 4 -10z m129 -82 c-4 -5 -16
-1 -28 10 -40 36 -50 35 -22 -1 16 -20 27 -37 25 -38 -33 -7 -36 -6 -32 10 2
10 -3 23 -11 30 -9 8 -16 10 -16 7 0 -4 -4 -5 -9 -2 -5 4 0 17 12 31 l22 24
32 -31 c18 -17 30 -35 27 -40z m51 41 c-11 -4 -27 -8 -35 -8 -10 1 -11 2 -2 6
6 2 10 8 7 12 -2 5 8 6 23 3 24 -5 24 -6 7 -13z m130 -23 c51 -22 88 -87 93
-163 5 -66 -3 -117 -17 -109 -4 3 -7 -5 -7 -17 1 -13 -4 -21 -12 -19 -8 1 -11
-2 -8 -7 9 -15 -51 -60 -90 -67 -127 -24 -224 96 -194 239 26 126 128 187 235
143z m873 -443 l-3 -418 -120 -6 c-66 -4 -202 -10 -302 -14 l-183 -7 0 431 0
431 305 0 305 0 -2 -417z m557 352 c191 -7 233 -14 272 -52 16 -14 20 -20 11
-13 -9 6 -23 8 -29 4 -7 -4 -9 -3 -6 3 4 6 0 13 -7 16 -10 4 -19 -8 -30 -40
-9 -25 -13 -50 -9 -56 3 -5 2 -7 -4 -4 -13 8 -98 -247 -88 -264 5 -8 4 -10 -3
-5 -11 7 -16 -7 -15 -41 1 -7 -3 -10 -8 -7 -5 3 -9 -1 -9 -9 0 -19 -57 -122
-77 -138 -12 -10 -15 -10 -9 -1 4 6 3 12 -1 12 -5 0 -15 -6 -22 -12 -10 -11
-11 -10 -5 5 4 12 2 16 -7 12 -18 -7 -22 -77 -6 -87 7 -5 1 -8 -15 -8 -16 0
-28 6 -28 13 0 8 -3 9 -8 1 -6 -10 -186 -1 -379 18 -21 2 -23 7 -23 60 l0 59
163 -8 c89 -4 198 -8 242 -8 l80 0 62 195 c34 107 62 204 63 216 0 11 -9 29
-20 39 -17 16 -49 19 -226 26 -234 10 -307 7 -329 -11 -17 -14 -10 -34 8 -24
7 4 1 -5 -12 -19 -14 -15 -27 -24 -30 -21 -3 4 -1 8 4 11 6 2 9 18 7 36 -3 25
3 38 26 60 47 45 94 57 202 52 52 -3 172 -7 265 -10z m1334 -89 c-2 -2 -13 8
-23 22 l-19 27 24 -22 c12 -12 21 -24 18 -27z m-1762 -4 c-7 -10 -13 -10 -15
-3 -2 6 -9 8 -14 5 -6 -4 -8 -3 -5 2 3 5 15 10 26 10 16 0 18 -3 8 -14z m477
-43 c6 -5 -12 -80 -44 -189 l-53 -180 -36 0 -36 0 -102 189 c-57 104 -103 192
-103 195 0 9 364 -6 374 -15z m1187 -16 c13 -16 12 -17 -3 -4 -10 7 -18 15
-18 17 0 8 8 3 21 -13z m-4304 -40 c89 -15 161 -28 160 -30 -4 -3 -198 -22
-352 -33 -104 -8 -138 -6 -255 13 -74 12 -127 23 -117 25 27 5 359 50 382 51
11 1 93 -11 182 -26z m-491 -58 c76 -14 153 -25 169 -26 17 0 24 -3 18 -6 -7
-2 -13 -12 -13 -21 0 -15 2 -15 10 -2 6 10 10 -102 10 -325 0 -187 -4 -346 -8
-353 -7 -10 -43 -6 -175 20 l-167 32 0 353 c0 194 4 353 8 353 4 0 71 -11 148
-25z m2204 11 c0 -2 -8 -10 -17 -17 -16 -13 -17 -12 -4 4 13 16 21 21 21 13z
m1070 -43 c0 -4 -10 -31 -22 -60 l-22 -53 -88 0 -88 0 0 39 c0 22 5 43 10 46
31 19 210 43 210 28z m958 -89 c24 -17 29 -53 10 -72 -18 -18 -75 -15 -82 4
-11 29 -6 63 12 73 24 14 34 13 60 -5z m-607 -168 c-14 -36 -22 -33 -9 5 6 16
12 28 14 26 3 -2 0 -16 -5 -31z m-1498 -3 c-7 -2 -19 -2 -25 0 -7 3 -2 5 12 5
14 0 19 -2 13 -5z m-70 -10 c-7 -2 -19 -2 -25 0 -7 3 -2 5 12 5 14 0 19 -2 13
-5z m-1074 -133 c20 -5 46 -10 59 -10 l22 0 0 -421 0 -422 -82 7 c-46 4 -93
10 -105 13 l-22 5 -1 460 -1 460 47 -41 c26 -22 63 -45 83 -51z m781 -461 l0
-471 -22 5 c-13 3 -78 11 -145 18 l-123 13 0 431 0 432 63 7 c34 3 85 13 112
20 28 8 65 15 83 15 l32 1 0 -471z m-500 6 l0 -421 -57 7 c-32 4 -70 8 -85 8
l-28 1 0 423 0 422 85 -9 85 -10 0 -421z m2078 419 c89 -4 162 -11 162 -16 0
-5 -5 -6 -12 -2 -6 4 -8 3 -5 -3 4 -6 1 -33 -5 -61 -12 -50 -14 -51 -58 -62
-105 -24 -326 -61 -343 -56 -9 2 -15 0 -11 -5 3 -5 0 -9 -5 -9 -7 0 -11 41
-11 116 l0 116 63 -6 c34 -3 135 -9 225 -12z m-1957 -4 l59 0 0 -425 0 -425
-37 0 c-21 0 -55 3 -75 6 l-38 7 0 424 c0 384 2 425 16 419 9 -3 42 -6 75 -6z
m2271 -40 c-2 -23 -84 -289 -134 -435 -31 -93 -85 -269 -118 -386 -17 -58 -41
-132 -54 -165 -13 -32 -54 -166 -91 -296 -37 -131 -71 -236 -75 -233 -4 3 -8
-1 -7 -8 1 -32 -4 -48 -13 -42 -5 3 -10 0 -10 -8 0 -12 -27 -26 -51 -27 -3 0
-5 12 -4 28 2 18 1 20 -2 5 -2 -13 -10 -23 -16 -24 -7 0 -20 -2 -30 -4 -12 -2
-17 1 -14 9 8 21 196 613 301 951 54 171 123 387 154 480 l57 170 40 6 c61 10
70 6 67 -21z m503 -44 c116 -14 244 -28 285 -32 l75 -8 -70 -8 c-38 -5 -180
-26 -315 -48 -135 -22 -253 -40 -263 -40 -15 0 -17 11 -17 78 0 43 3 82 7 86
4 3 25 4 47 1 23 -3 136 -16 251 -29z m-380 -36 c-4 8 1 6 10 -5 23 -28 20
-310 -4 -335 -9 -9 -19 -15 -23 -13 -5 2 -8 -1 -8 -6 0 -6 -4 -11 -8 -11 -13
0 -15 275 -2 336 11 51 13 54 27 37 8 -11 12 -12 8 -3z m-775 -192 c0 -106 -3
-244 -7 -305 l-6 -113 -31 -4 c-17 -3 -128 -10 -246 -16 -118 -6 -246 -13
-283 -17 l-68 -6 3 306 c2 168 7 309 11 314 9 9 340 29 520 31 l107 2 0 -192z
m-3210 152 c0 -27 -3 -30 -24 -24 -13 3 -61 11 -107 18 l-84 12 65 11 c36 6
84 11 108 12 40 1 42 0 42 -29z m4830 -211 l0 -231 -37 7 c-21 3 -99 20 -174
37 l-137 31 -11 126 c-16 163 -18 182 -25 189 -3 3 -6 -15 -7 -39 l-1 -44 -10
43 c-5 24 -8 45 -6 46 8 6 346 64 376 65 l32 1 0 -231z m-4986 175 c112 -23
166 -43 166 -63 0 -4 -11 -19 -24 -32 l-24 -24 127 0 c69 0 171 -2 226 -4 81
-3 136 2 292 29 l193 33 102 -19 103 -19 -140 -11 c-77 -7 -221 -24 -320 -38
-99 -14 -204 -27 -232 -28 -29 -2 -53 -6 -53 -9 0 -8 111 -21 118 -14 3 3 -3
5 -14 6 -54 2 383 58 574 73 66 6 72 5 72 -13 0 -11 -7 -26 -15 -35 -9 -9 -11
-17 -5 -21 6 -4 10 -67 10 -159 l0 -154 -77 -11 c-43 -6 -100 -9 -128 -7 -34
4 -41 3 -20 -2 28 -7 26 -8 -24 -15 -29 -3 -74 -4 -100 -2 -39 4 -42 3 -16 -5
26 -8 24 -9 -17 -6 -26 2 -45 0 -42 -5 3 -5 -2 -9 -11 -9 -14 0 -16 19 -13
165 2 127 0 165 -9 165 -10 0 -13 -41 -13 -170 0 -157 -1 -170 -18 -170 -27 0
-42 -20 -42 -56 0 -18 -4 -36 -10 -39 -13 -8 -13 -48 0 -61 7 -7 8 -25 2 -52
-8 -32 -7 -44 4 -53 22 -18 17 -39 -9 -39 -13 0 -63 17 -113 38 l-89 38 -3
311 -2 311 -41 7 c-22 4 -43 4 -46 1 -4 -3 3 -6 15 -6 48 0 47 9 44 -310 -2
-256 -5 -300 -17 -300 -10 0 -15 11 -15 33 0 45 -23 73 -65 81 l-35 7 0 249 0
250 28 1 c15 1 3 5 -27 10 -30 5 -60 7 -65 5 -6 -2 1 -5 17 -5 l27 -1 0 -260
0 -260 -100 0 -100 0 -2 185 c-4 323 -3 360 7 359 6 -1 35 -4 65 -7 l55 -5
-50 13 c-27 7 -62 14 -77 14 l-28 1 0 -280 0 -280 -95 0 -95 0 0 354 0 355 38
-6 c20 -3 91 -16 156 -29z m3805 -24 c-11 -30 -11 -30 -89 -30 -42 0 -99 3
-126 7 -51 7 -43 9 218 52 4 0 2 -12 -3 -29z m-2645 -39 c-2 -2 -25 0 -51 4
-48 8 -48 8 -17 16 17 5 38 16 45 26 13 15 15 13 20 -13 3 -16 4 -31 3 -33z
m3386 40 c-22 -6 -25 -13 -23 -47 1 -29 -1 -34 -7 -19 -21 49 -9 74 35 73 16
0 14 -2 -5 -7z m-60 -17 c0 -13 -3 -14 -13 -5 -16 12 -27 5 -27 -18 0 -14 2
-14 10 -1 7 11 10 -1 11 -40 1 -57 15 -168 18 -138 2 28 17 28 16 0 -2 -41 6
-46 21 -17 16 31 17 38 7 32 -5 -3 -9 11 -9 32 -2 33 0 31 19 -24 18 -53 22
-57 28 -35 6 23 7 22 8 -8 1 -25 5 -32 19 -30 11 2 18 -4 20 -19 l3 -22 -48
18 c-26 10 -56 22 -65 26 -15 6 -18 2 -19 -21 -5 -125 -4 -162 3 -181 7 -20 5
-21 -16 -12 -23 11 -23 14 -30 236 -6 181 -5 228 6 234 21 14 38 10 38 -7z
m-70 -224 c0 -199 -2 -229 -15 -224 -8 4 -12 10 -9 15 3 5 -4 9 -15 9 -30 0
-52 11 -44 23 4 7 0 8 -12 3 -13 -5 -28 5 -56 34 l-39 41 0 148 0 149 93 15
c50 8 93 15 95 16 1 1 2 -102 2 -229z m-739 174 l106 -6 -12 -36 c-13 -36 -13
-36 -66 -33 -97 4 -283 21 -288 26 -2 3 5 5 17 5 11 0 24 5 28 12 5 8 2 9 -10
5 -10 -4 -15 -3 -11 3 3 6 18 10 33 11 22 1 18 4 -18 14 l-45 14 80 -4 c44 -3
128 -7 186 -11z m399 -14 c0 -5 -7 -10 -15 -10 -8 0 -15 -7 -15 -16 0 -8 -4
-12 -10 -9 -5 3 -10 1 -10 -6 0 -7 -2 -10 -5 -7 -12 12 15 58 35 58 11 0 20
-4 20 -10z m427 -22 c-3 -7 -5 -2 -5 12 0 14 2 19 5 13 2 -7 2 -19 0 -25z
m-495 -70 c-8 -8 -9 -4 -5 13 4 13 8 18 11 10 2 -7 -1 -18 -6 -23z m595 -30
c-2 -13 -4 -5 -4 17 -1 22 1 32 4 23 2 -10 2 -28 0 -40z m-5673 0 c7 -11 5
-20 -6 -31 -14 -15 -17 -14 -33 3 -15 16 -16 22 -5 35 15 18 29 16 44 -7z
m6896 6 c11 -12 10 -18 -3 -32 -16 -15 -18 -15 -34 0 -13 14 -14 20 -3 32 7 9
16 16 20 16 4 0 13 -7 20 -16z m-1833 -36 c-3 -8 -6 -5 -6 6 -1 11 2 17 5 13
3 -3 4 -12 1 -19z m70 -40 c-3 -8 -6 -5 -6 6 -1 11 2 17 5 13 3 -3 4 -12 1
-19z m0 -63 c-1 -19 -3 -35 -4 -35 -7 0 -31 59 -26 64 18 18 33 4 30 -29z
m-367 11 c0 -8 -7 -21 -15 -29 -8 -8 -11 -17 -8 -21 8 -8 -105 -8 -192 1 l-70
7 135 27 c164 33 150 32 150 15z m-32 -91 c1 -1 -3 -23 -10 -49 l-12 -47 -46
5 c-25 3 -75 8 -112 12 l-68 6 0 43 0 43 123 -5 c67 -3 123 -7 125 -8z m-74
-142 c38 -6 38 -6 15 -18 -67 -35 -308 -50 -479 -29 l-85 10 170 6 c182 7 205
11 205 35 0 13 11 15 68 9 37 -4 84 -10 106 -13z m556 -93 c0 -98 0 -100 -25
-106 -14 -3 -42 -3 -63 0 -23 4 -32 3 -24 -2 9 -6 -6 -11 -44 -15 -32 -3 -60
-4 -63 -1 -3 2 4 19 14 37 21 36 21 37 5 47 -7 4 -9 17 -5 33 4 15 11 24 16
21 5 -3 9 2 9 10 0 21 16 21 24 0 7 -20 -4 -94 -14 -94 -5 0 -6 -10 -2 -22 5
-20 7 -18 17 13 7 19 16 54 20 78 5 32 10 40 17 30 7 -10 7 -7 3 9 -13 47 2
62 61 62 l54 0 0 -100z m-3102 73 c-10 -2 -28 -2 -40 0 -13 2 -5 4 17 4 22 1
32 -1 23 -4z m12 -24 c52 -6 99 -14 103 -18 5 -5 -16 -5 -45 0 -29 4 -111 13
-182 19 -71 5 -132 13 -135 16 -7 6 113 -2 259 -17z m88 14 c-10 -2 -28 -2
-40 0 -13 2 -5 4 17 4 22 1 32 -1 23 -4z m-345 -18 l57 -6 2 -87 2 -87 3 88 4
88 27 -5 c15 -3 81 -11 147 -16 66 -6 127 -12 135 -15 14 -4 177 -22 749 -80
129 -14 238 -28 242 -32 4 -4 9 -26 12 -48 4 -39 4 -39 5 8 l2 48 48 -6 c88
-12 82 -4 82 -122 l0 -105 -32 6 c-33 6 -490 59 -833 96 -169 19 -500 58 -679
80 -44 6 -83 10 -87 10 -14 0 -21 61 -14 130 l7 68 31 -3 c18 -3 58 -7 90 -10z
m2412 -23 c17 -11 15 -12 -16 -6 -56 9 -160 11 -146 2 7 -4 30 -8 52 -9 41 -1
-153 -31 -445 -68 -247 -31 -275 -34 -270 -28 3 3 64 13 135 22 137 17 190 30
215 53 13 12 13 15 -5 28 -11 8 -25 12 -32 10 -7 -3 -13 -1 -13 5 0 15 499 7
525 -9z m349 3 c-4 -8 -15 -15 -26 -15 -10 0 -16 -4 -13 -10 3 -5 1 -10 -4
-10 -6 0 -11 -7 -11 -15 0 -25 -32 -66 -46 -61 -17 7 -18 -6 -2 -22 9 -9 8
-12 -5 -12 -9 0 -17 -6 -17 -12 0 -9 -3 -8 -10 2 -5 8 -12 12 -15 8 -3 -3 1
-13 10 -21 8 -9 15 -21 15 -28 0 -7 -3 -9 -7 -6 -3 4 -14 0 -24 -9 -14 -13
-31 -15 -70 -12 -29 3 -45 2 -37 -3 9 -6 7 -9 -9 -9 -22 0 -23 3 -23 109 l0
108 71 7 c40 3 73 5 75 3 2 -2 5 -31 6 -65 4 -82 18 -80 18 3 l0 64 33 5 c17
3 43 7 57 9 14 3 28 5 32 6 4 0 5 -6 2 -14z m-4230 -33 c9 -14 -426 -23 -742
-15 -183 5 -270 10 -227 14 114 9 963 10 969 1z m3916 -98 c0 -103 0 -105 -21
-99 -16 5 -19 4 -14 -5 6 -10 -8 -12 -66 -7 -52 4 -63 3 -39 -3 27 -7 19 -8
-35 -5 -38 2 -59 0 -45 -4 16 -4 -35 -14 -155 -30 -99 -12 -241 -32 -315 -43
-74 -11 -148 -17 -165 -14 -22 4 -26 3 -15 -4 12 -8 11 -10 -7 -10 -22 0 -23
3 -23 108 l0 108 113 13 c61 6 219 27 350 45 l237 32 0 -83 c0 -52 4 -83 11
-83 7 0 9 29 7 84 l-3 85 70 9 c128 17 115 27 115 -94z m3110 97 c51 -4 -23
-9 -231 -14 -323 -8 -742 0 -733 15 6 9 849 9 964 -1z m-6120 -68 l-55 -37
-330 -8 c-181 -5 -370 -7 -420 -6 l-90 3 70 35 c68 34 73 35 220 41 82 3 265
6 405 7 l255 2 -55 -37z m4554 21 c292 -6 299 -7 275 -25 l-24 -18 40 6 c31 4
46 0 65 -15 14 -11 22 -23 18 -27 -9 -9 -9 -9 -333 4 -154 6 -314 11 -356 11
-68 0 -80 3 -124 32 -40 27 -45 33 -29 39 10 3 53 5 94 3 41 -2 210 -7 374
-10z m-2531 -31 c-7 -2 -21 -2 -30 0 -10 3 -4 5 12 5 17 0 24 -2 18 -5z m95
-10 c-16 -2 -40 -2 -55 0 -16 2 -3 4 27 4 30 0 43 -2 28 -4z m-2181 -290 l-2
-258 -422 -3 -423 -2 0 255 0 255 328 3 c180 1 371 3 424 5 l97 2 -2 -257z
m3945 189 l4 -44 -41 6 c-25 3 -33 2 -20 -3 15 -6 1 -10 -48 -15 -38 -4 -71
-5 -74 -2 -4 3 11 7 33 7 28 1 32 3 14 6 -38 7 -50 22 -50 59 0 33 1 34 43 35
23 0 62 4 87 7 28 5 46 3 47 -3 1 -5 3 -30 5 -53z m793 50 l209 -7 -87 -33
c-48 -18 -87 -35 -87 -38 0 -7 30 3 144 47 55 22 103 36 106 32 4 -5 5 -119 2
-255 l-4 -248 -404 0 -404 0 0 199 c0 109 3 225 6 259 l7 61 151 -6 c83 -3
245 -8 361 -11z m-3825 -57 c168 -20 353 -41 412 -47 58 -6 112 -14 119 -18
10 -7 -6 -37 -51 -93 -6 -6 -379 32 -755 78 -66 8 -121 15 -122 15 -2 0 -3 25
-3 55 l0 56 48 -6 c26 -3 184 -21 352 -40z m-1810 -13 c0 -16 -20 -17 -337
-14 -186 1 -349 6 -363 10 -14 4 106 9 265 12 160 3 323 6 363 8 63 2 72 0 72
-16z m6620 7 c135 -1 232 -5 215 -9 -45 -11 -811 -12 -799 -1 13 14 101 19
229 15 61 -2 220 -4 355 -5z m-2470 -16 c0 -12 -3 -14 -8 -6 -9 15 -28 3 -26
-17 2 -32 5 -35 14 -20 7 11 8 5 4 -20 -4 -19 -7 -36 -8 -37 -1 0 -45 -6 -99
-13 -76 -9 -101 -9 -112 0 -8 7 -12 17 -8 24 3 6 3 8 -2 4 -4 -4 -14 -3 -22 3
-16 14 -18 33 -1 23 7 -4 8 -3 4 5 -4 6 -11 9 -16 6 -4 -3 -13 2 -20 10 -10
12 -7 15 12 20 18 4 224 29 276 34 6 1 12 -7 12 -16z m-247 -163 c4 0 7 -4 7
-10 0 -24 -94 -9 -179 28 -47 21 -97 43 -111 49 -23 9 -19 11 35 18 33 3 64 8
69 9 5 1 46 -19 90 -46 45 -26 84 -48 89 -48z m713 58 c5 -7 3 -8 -6 -3 -9 5
-11 4 -6 -4 4 -6 11 -9 16 -6 12 7 55 -59 75 -114 17 -50 21 -225 4 -181 -8
20 -12 22 -19 10 -7 -10 -10 2 -10 40 0 73 -12 114 -55 184 -19 32 -37 69 -39
82 -4 21 -2 23 14 14 10 -6 22 -15 26 -22z m-1006 -2 c25 -8 76 -29 114 -47
70 -33 70 -33 40 -42 -16 -6 -34 -17 -40 -25 -10 -13 -18 -11 -65 15 -30 16
-87 43 -126 59 -40 16 -73 32 -73 36 0 7 34 14 80 16 14 1 45 -4 70 -12z m-54
-63 l39 -17 -75 -8 c-137 -15 -341 -14 -405 1 -74 18 -68 20 130 30 251 13
269 12 311 -6z m-662 1 c14 -5 16 -41 16 -300 0 -287 0 -294 -20 -294 -14 0
-20 7 -21 23 -1 18 -2 19 -6 4 -4 -16 -11 -18 -51 -12 -90 12 -82 -19 -82 301
l0 284 74 0 c41 0 81 -3 90 -6z m187 -29 c79 -14 146 -25 149 -25 3 0 4 -136
2 -301 l-3 -301 -42 6 c-23 4 -93 16 -154 27 l-113 21 0 299 c0 165 4 299 9
299 4 0 73 -11 152 -25z m582 -30 c20 -14 37 -31 37 -38 0 -8 3 -8 9 2 5 8 19
12 35 9 23 -5 26 -2 26 23 l0 29 73 0 72 0 -3 -290 c-2 -267 -4 -290 -20 -290
-9 0 -156 -9 -325 -21 -170 -11 -310 -19 -312 -17 -2 2 -5 136 -6 298 l-2 295
124 7 c68 4 138 9 154 11 77 10 101 6 138 -18z m879 -39 c13 -25 19 -194 6
-175 -7 10 -8 5 -4 -16 5 -22 4 -26 -4 -15 -5 8 -10 11 -10 6 0 -5 -9 -1 -20
9 -18 16 -20 16 -26 1 -3 -9 -4 -26 -1 -39 6 -21 6 -21 -8 -3 -14 19 -15 18
-15 -12 0 -26 4 -32 21 -32 11 0 17 5 14 10 -4 6 -2 9 4 8 5 -2 17 6 26 17 9
11 13 13 9 5 -15 -31 -38 -50 -60 -50 l-24 0 1 170 c0 96 5 170 10 170 5 0 9
-2 9 -4 0 -2 3 -12 7 -22 4 -12 3 -15 -5 -10 -8 5 -12 -1 -12 -16 0 -19 2 -20
11 -8 8 12 10 9 6 -12 -2 -15 -1 -32 3 -38 4 -6 8 10 9 36 0 26 3 50 6 52 3 3
-1 12 -7 21 -7 9 0 5 16 -9 15 -14 32 -33 38 -44z m-377 2 c-4 -18 -13 -48
-20 -68 l-12 -35 -82 -3 -82 -3 3 53 3 53 65 17 c36 9 80 16 98 17 33 1 33 0
27 -31z m1948 -87 c59 -10 110 -20 112 -23 2 -2 -53 -16 -123 -30 -70 -15
-127 -26 -128 -25 -6 13 11 97 20 97 6 0 59 -9 119 -19z m-6113 -37 l0 -37
-42 6 c-24 4 -70 13 -103 20 l-60 14 50 8 c28 4 68 11 90 15 65 13 65 13 65
-26z m4567 4 c-3 -7 -5 -2 -5 12 0 14 2 19 5 13 2 -7 2 -19 0 -25z m1688 -7
c-3 -5 -1 -12 4 -15 5 -4 12 2 14 11 3 10 5 -135 5 -322 0 -187 -2 -334 -5
-327 -2 6 -8 10 -11 8 -4 -2 -7 20 -7 50 0 30 -2 54 -6 54 -4 0 -5 19 -3 43 2
23 1 33 -2 22 -9 -30 -24 -42 -25 -19 -1 10 -1 22 0 27 0 4 -3 7 -9 7 -5 0
-10 -7 -10 -16 0 -9 -5 -12 -12 -8 -7 4 -8 3 -4 -5 4 -6 12 -8 18 -5 7 4 8 2
4 -4 -8 -13 -36 -16 -37 -4 0 4 -2 15 -4 24 -2 11 2 15 11 11 8 -3 14 0 14 6
0 6 -3 10 -7 10 -20 -3 -34 2 -28 11 3 6 1 10 -5 10 -6 0 -8 -10 -4 -27 11
-42 33 -90 34 -73 1 8 8 2 15 -15 7 -16 10 -34 7 -39 -3 -5 -9 -1 -14 10 -6
13 -6 9 -2 -11 4 -16 6 -41 6 -55 -2 -20 0 -22 8 -10 7 10 10 11 10 2 0 -7 -7
-15 -16 -19 -13 -5 -13 -8 -2 -15 10 -8 10 -9 -2 -5 -9 2 -14 13 -12 26 2 12
-1 28 -7 34 -5 7 -14 35 -20 62 -9 48 -9 46 -6 -28 3 -92 -12 -115 -18 -25 -3
53 -4 51 -3 -15 1 -42 -2 -77 -6 -77 -11 0 -10 208 1 214 4 3 6 -7 4 -22 -3
-24 -3 -25 6 -5 12 26 3 71 -11 51 -5 -7 -6 83 -2 217 3 127 7 230 8 231 0 1
16 4 35 8 29 5 32 4 27 -12 -5 -12 -2 -11 11 5 10 11 27 23 38 26 11 3 21 5
23 6 2 0 1 -3 -3 -8z m-6429 -17 l71 -17 11 -321 10 -321 -3 318 c-3 241 -1
317 8 317 46 -1 88 -22 122 -59 26 -29 52 -46 82 -54 l43 -11 0 -314 c0 -294
-1 -313 -17 -308 -10 3 -106 34 -213 69 l-195 63 -3 327 c-1 180 1 327 5 327
5 0 40 -7 79 -16z m4577 -28 c18 -4 18 -4 -3 -3 -14 1 -25 8 -26 17 0 8 1 10
3 3 2 -6 14 -14 26 -17z m-2212 -16 c146 -16 276 -33 288 -38 17 -6 -23 -16
-151 -40 -95 -18 -186 -33 -203 -34 -23 0 -25 -2 -7 -5 l22 -4 0 -290 0 -290
-42 6 c-24 3 -191 23 -373 45 -181 22 -340 42 -353 45 l-22 5 2 283 3 282 25
-2 c14 -1 169 -19 344 -38 176 -20 331 -35 345 -33 14 2 -134 21 -329 43
l-354 39 99 13 c55 7 159 21 230 32 72 11 148 17 170 15 22 -2 160 -17 306
-34z m1922 23 c-7 -2 -21 -2 -30 0 -10 3 -4 5 12 5 17 0 24 -2 18 -5z m1975 0
c-10 -2 -18 -9 -18 -15 0 -6 -10 -8 -24 -4 -15 4 -28 0 -36 -9 -10 -12 -8 -13
11 -10 30 6 43 -4 28 -21 -10 -12 -7 -12 17 1 15 8 30 13 32 11 1 -2 -1 -143
-5 -312 -6 -214 -10 -280 -13 -214 -5 90 -16 105 -22 30 -3 -32 -6 -36 -38
-40 l-35 -6 32 -5 c19 -3 34 -1 37 5 2 6 5 3 5 -6 1 -10 -2 -18 -6 -19 -44 -5
-71 -13 -88 -27 -18 -16 -19 -16 -7 0 11 14 11 16 -7 11 -12 -3 -21 -10 -21
-15 0 -5 -4 -6 -10 -3 -5 3 -10 -1 -10 -10 0 -15 -1 -15 -16 0 -14 13 -19 14
-26 3 -5 -8 -7 -3 -4 15 3 15 0 27 -5 27 -5 0 -9 7 -9 15 0 13 4 14 23 5 l22
-11 -22 17 c-21 15 -23 24 -23 122 0 58 2 103 5 100 3 -3 6 -48 6 -102 0 -53
5 -96 10 -96 5 0 9 28 9 63 0 35 5 68 11 74 8 8 7 13 -2 18 -8 6 -10 4 -4 -5
5 -8 4 -11 -2 -7 -6 4 -8 18 -6 32 3 13 8 23 12 21 4 -3 8 9 9 25 2 19 -2 28
-8 24 -6 -4 -10 4 -10 19 0 14 5 28 10 31 6 3 10 14 9 23 0 14 -2 13 -9 -3 -8
-19 -9 -19 -9 -1 -2 36 -14 7 -21 -51 -7 -54 -8 -51 -9 42 -2 55 -4 110 -7
123 -2 12 1 22 6 22 6 0 11 -12 11 -27 1 -18 3 -21 6 -10 2 9 8 15 13 12 10
-6 8 15 -4 34 -7 10 -6 12 4 6 10 -6 12 -4 7 8 -5 12 -1 17 13 17 10 0 23 7
28 15 4 9 18 17 29 18 12 0 20 4 17 8 -6 11 10 19 58 28 46 9 86 12 56 4z
m-4992 -89 c74 -49 116 -84 100 -84 -4 0 -115 -34 -248 -75 -133 -41 -243 -73
-243 -72 -46 78 -143 218 -172 247 -12 11 38 -81 86 -160 28 -46 50 -89 48
-94 -3 -8 -68 -10 -198 -7 -107 2 -192 1 -189 -2 5 -5 188 -25 272 -29 27 -2
47 -6 45 -10 -3 -10 -132 -113 -171 -138 -64 -39 -38 -33 39 10 l75 41 1 -113
c0 -62 4 -133 9 -158 6 -31 8 6 5 117 -3 150 -2 162 16 179 10 9 21 15 22 13
2 -2 37 -73 77 -157 41 -85 76 -149 78 -143 2 6 -26 78 -62 160 -36 82 -66
154 -66 160 0 18 56 40 309 121 137 44 256 82 265 86 15 6 16 -19 16 -269 l0
-275 -27 -5 c-16 -4 -88 -12 -162 -19 -127 -12 -134 -11 -147 7 -13 18 -14 18
-15 -6 -1 -17 -3 -19 -6 -6 -2 9 -8 17 -13 17 -13 0 -20 -28 -7 -34 7 -2 3 -5
-8 -5 -11 -1 -59 -8 -107 -18 -81 -15 -91 -15 -139 0 -60 20 -102 22 -128 5
-15 -9 -41 -6 -130 17 l-111 29 0 353 0 353 235 0 c146 0 235 -4 235 -10 0 -6
41 -9 103 -7 90 2 107 5 147 29 51 30 43 32 166 -48z m3601 54 c-3 -8 -6 -5
-6 6 -1 11 2 17 5 13 3 -3 4 -12 1 -19z m375 2 c31 -19 32 -20 8 -18 -14 0
-69 -2 -124 -7 -82 -6 -98 -5 -94 6 5 14 88 36 145 38 18 0 47 -8 65 -19z
m-564 -15 c-3 -3 -9 2 -12 12 -6 14 -5 15 5 6 7 -7 10 -15 7 -18z m167 -44
c-11 -22 -22 -31 -38 -30 l-22 2 23 4 c12 2 20 9 17 14 -4 5 -2 9 4 9 5 0 13
9 16 21 4 11 9 18 12 16 2 -3 -3 -19 -12 -36z m1125 -316 l0 -355 -27 0 c-16
0 -91 7 -168 15 -77 8 -146 15 -152 15 -10 0 -13 25 -13 93 0 118 -15 244 -40
327 -10 36 -22 88 -25 115 l-7 51 103 11 c94 11 219 45 266 72 10 6 28 11 41
11 l22 0 0 -355z m75 348 c-27 -3 -53 -10 -57 -16 -5 -8 -8 -6 -8 6 0 14 9 17
58 15 l57 -2 -50 -3z m-1505 -17 c0 -2 -7 -7 -16 -10 -8 -3 -12 -2 -9 4 6 10
25 14 25 6z m765 -26 c197 -16 195 -16 195 -51 0 -17 -4 -28 -8 -25 -4 2 -61
9 -127 15 -198 18 -205 20 -205 46 0 13 -6 26 -12 29 -7 3 -4 4 7 2 11 -3 79
-10 150 -16z m-1088 -16 c-3 -3 -12 -4 -19 -1 -8 3 -5 6 6 6 11 1 17 -2 13 -5z
m118 -31 c-3 -16 -9 -76 -12 -135 l-5 -108 -59 0 c-32 0 -59 1 -59 3 0 2 48
172 57 200 3 10 16 17 32 17 25 1 25 1 5 13 -29 16 -19 37 18 37 28 0 30 -2
23 -27z m730 -19 c83 -10 154 -20 158 -24 10 -8 -270 -30 -373 -29 -41 0 -145
11 -230 24 l-155 23 100 2 c55 1 141 5 190 9 144 12 152 12 310 -5z m-555 -29
c63 -8 153 -19 200 -25 47 -5 95 -13 108 -15 l22 -5 0 -340 c-1 -234 -4 -340
-12 -340 -15 0 -310 50 -330 56 -11 3 -20 23 -27 57 -5 29 -19 104 -31 167
-12 63 -32 150 -46 193 -28 90 -35 267 -11 267 7 0 64 -7 127 -15z m990 -14
c0 -4 -11 -6 -25 -3 -14 2 -25 6 -25 8 0 2 11 4 25 4 14 0 25 -4 25 -9z m-193
-7 c-3 -3 -12 -4 -19 -1 -8 3 -5 6 6 6 11 1 17 -2 13 -5z m-54 -11 c-13 -2
-33 -2 -45 0 -13 2 -3 4 22 4 25 0 35 -2 23 -4z m-1106 -40 c-3 -10 -5 -4 -5
12 0 17 2 24 5 18 2 -7 2 -21 0 -30z m913 27 c-30 -5 -82 -8 -115 -7 l-60 1
70 6 c39 4 90 7 115 7 44 0 44 0 -10 -7z m-187 -8 c-10 -6 -13 -84 -16 -312
l-2 -305 -3 313 c-2 291 -1 312 16 312 12 0 13 -3 5 -8z m1114 -379 c-1 -65
-3 -12 -3 117 0 129 2 182 3 118 2 -65 2 -171 0 -235z m-640 30 c-1 -54 -3
-12 -3 92 0 105 2 149 3 98 2 -51 2 -136 0 -190z m-2480 252 c16 -8 52 -18 79
-21 78 -11 81 -20 9 -28 -38 -4 -90 -12 -116 -17 l-49 -11 -2 -282 -3 -282
-170 19 c-93 10 -170 19 -171 20 -1 1 -4 128 -5 282 l-4 280 95 12 c118 15
305 41 306 42 0 1 14 -6 31 -14z m2440 -37 c-2 -13 -4 -5 -4 17 -1 22 1 32 4
23 2 -10 2 -28 0 -40z m-1992 -53 c44 -8 120 -15 168 -15 l88 0 55 -53 54 -54
0 -216 0 -216 -32 -5 c-300 -49 -323 -50 -510 -31 l-178 19 0 283 c0 156 -1
286 -2 291 -9 24 220 22 357 -3z m1992 -87 c-2 -24 -4 -7 -4 37 0 44 2 63 4
43 2 -21 2 -57 0 -80z m-2375 -194 l-3 -286 -52 6 c-28 4 -52 8 -53 9 -2 3 -7
477 -6 520 l2 37 58 0 57 0 -3 -286z m851 146 l27 0 0 -201 c0 -178 -2 -200
-16 -195 -8 3 -12 2 -9 -4 4 -6 -10 -10 -34 -10 l-41 0 0 211 0 211 23 -6 c12
-3 34 -6 50 -6z m347 -182 c0 -98 -2 -178 -5 -178 -8 0 -229 -30 -257 -35
l-28 -4 0 197 0 197 145 0 145 0 0 -177z m1177 70 c-2 -24 -4 -7 -4 37 0 44 2
63 4 43 2 -21 2 -57 0 -80z m-5429 7 c-3 -3 -25 -10 -49 -15 -40 -9 -38 -9 26
-6 55 3 61 2 30 -4 -158 -32 -228 -37 -254 -21 -9 6 11 13 60 21 41 7 90 16
109 20 42 10 85 12 78 5z m1675 -15 c42 -7 74 -16 72 -20 -3 -5 -1 -10 4 -12
5 -1 7 -24 4 -49 l-5 -45 -67 13 c-122 24 -111 17 -111 79 0 42 3 55 13 51 7
-3 48 -11 90 -17z m4565 -21 c10 0 6 -5 -10 -10 -19 -7 -33 -7 -45 0 -15 9
-13 10 12 6 25 -5 27 -4 13 5 -10 6 -18 16 -18 21 0 6 7 3 16 -5 8 -9 23 -16
32 -17z m562 10 c57 -11 62 -13 42 -22 -27 -13 -155 6 -205 29 -31 15 -30 15
33 10 36 -3 94 -11 130 -17z m-6725 1 c3 -5 0 -10 -7 -11 -7 0 -4 -4 7 -9 28
-12 37 -12 30 0 -8 13 1 12 45 -4 l35 -13 -45 -13 c-44 -12 -201 -7 -224 8 -6
3 21 12 59 19 39 7 71 17 73 23 5 13 19 13 27 0z m5392 -47 c-3 -10 -5 -2 -5
17 0 19 2 27 5 18 2 -10 2 -26 0 -35z m-3564 17 l77 -13 0 -53 c0 -63 5 -61
-120 -39 -47 8 -86 15 -87 15 -2 0 -3 25 -3 56 0 56 0 56 28 51 15 -3 62 -11
105 -17z m4694 14 c-3 -3 -12 -4 -19 -1 -8 3 -5 6 6 6 11 1 17 -2 13 -5z m-49
-16 c28 -5 52 -13 52 -18 0 -10 -118 -6 -170 6 -33 7 -34 8 -10 14 35 9 67 9
128 -2z m-1121 -50 c-2 -13 -4 -5 -4 17 -1 22 1 32 4 23 2 -10 2 -28 0 -40z
m-3387 7 c0 -44 -13 -85 -26 -85 -10 0 -14 16 -14 59 0 54 2 59 20 54 13 -3
20 -14 20 -28z m194 0 c99 -14 182 -25 185 -25 3 0 7 -29 9 -65 3 -58 1 -65
-15 -65 -10 0 -93 14 -183 30 -90 17 -168 30 -172 30 -4 0 -8 27 -8 60 0 33 1
60 3 60 1 0 83 -11 181 -25z m-1910 -3 c55 -10 59 -32 6 -32 -29 0 -39 3 -34
12 5 8 2 9 -10 5 -9 -4 -38 -4 -64 0 -40 6 -43 8 -22 14 33 9 76 10 124 1z
m-217 -8 c-3 -3 -12 -4 -19 -1 -8 3 -5 6 6 6 11 1 17 -2 13 -5z m141 -31 c-10
-2 -28 -2 -40 0 -13 2 -5 4 17 4 22 1 32 -1 23 -4z m59 -9 c-3 -3 -12 -4 -19
-1 -8 3 -5 6 6 6 11 1 17 -2 13 -5z m46 -11 c-7 -2 -19 -2 -25 0 -7 3 -2 5 12
5 14 0 19 -2 13 -5z m5254 1 c-3 -3 -12 -4 -19 -1 -8 3 -5 6 6 6 11 1 17 -2
13 -5z m-5140 -10 c-3 -3 -12 -4 -19 -1 -8 3 -5 6 6 6 11 1 17 -2 13 -5z m130
0 c-3 -3 -12 -4 -19 -1 -8 3 -5 6 6 6 11 1 17 -2 13 -5z m50 -10 c-3 -3 -12
-4 -19 -1 -8 3 -5 6 6 6 11 1 17 -2 13 -5z m-54 -11 c-7 -2 -19 -2 -25 0 -7 3
-2 5 12 5 14 0 19 -2 13 -5z m120 0 c-7 -2 -21 -2 -30 0 -10 3 -4 5 12 5 17 0
24 -2 18 -5z m4650 0 c-7 -2 -19 -2 -25 0 -7 3 -2 5 12 5 14 0 19 -2 13 -5z
m-4698 -13 c4 -7 -3 -8 -22 -4 -38 9 -42 14 -10 14 14 0 29 -5 32 -10z m195
-2 c0 -5 16 -6 36 -2 22 4 35 3 31 -2 -7 -12 -1 -12 130 -18 56 -3 113 -8 128
-12 15 -4 85 3 156 16 71 12 136 19 145 16 9 -3 12 -2 8 5 -4 7 9 9 41 7 25
-3 50 -10 54 -17 6 -9 19 -9 51 -2 23 5 38 6 34 2 -5 -5 -71 -23 -147 -42 -76
-18 -134 -35 -129 -37 5 -1 69 11 142 28 129 29 200 37 214 23 4 -4 24 -7 44
-6 44 2 17 -4 -197 -43 -74 -13 -137 -27 -140 -30 -3 -4 8 -4 24 0 161 32 307
50 407 50 183 1 168 -14 -58 -59 l-196 -39 -111 22 c-62 12 -188 35 -282 52
-259 47 -490 92 -493 95 -2 2 21 3 52 3 31 0 56 -5 56 -10z m4428 5 c-10 -2
-26 -2 -35 0 -10 3 -2 5 17 5 19 0 27 -2 18 -5z m-4568 -7 c0 -2 -7 -6 -15
-10 -8 -3 -15 -1 -15 4 0 6 7 10 15 10 8 0 15 -2 15 -4z m4477 -2 c-3 -3 -12
-4 -19 -1 -8 3 -5 6 6 6 11 1 17 -2 13 -5z m600 0 c-3 -3 -12 -4 -19 -1 -8 3
-5 6 6 6 11 1 17 -2 13 -5z m-5024 -11 c-7 -2 -19 -2 -25 0 -7 3 -2 5 12 5 14
0 19 -2 13 -5z m4204 -15 c-3 -8 -6 -5 -6 6 -1 11 2 17 5 13 3 -3 4 -12 1 -19z
m140 16 c-3 -3 -12 -4 -19 -1 -8 3 -5 6 6 6 11 1 17 -2 13 -5z m503 -4 c-11
-7 -2 -9 30 -5 25 2 7 -4 -40 -15 -85 -19 -137 -25 -90 -10 25 8 25 8 -5 10
-21 2 -10 6 35 15 84 16 88 17 70 5z m113 3 c-7 -2 -19 -2 -25 0 -7 3 -2 5 12
5 14 0 19 -2 13 -5z m-5663 -23 c-6 -11 -13 -20 -16 -20 -2 0 0 9 6 20 6 11
13 20 16 20 2 0 0 -9 -6 -20z m757 -5 c1 -15 0 -15 -3 -3 -3 9 -13 19 -22 22
-12 3 -12 4 3 3 12 -1 21 -10 22 -22z m380 19 c-3 -3 -12 -4 -19 -1 -8 3 -5 6
6 6 11 1 17 -2 13 -5z m3826 -1 c-7 -2 -21 -2 -30 0 -10 3 -4 5 12 5 17 0 24
-2 18 -5z m-4114 -19 c10 -9 -45 -3 -59 6 -11 7 -5 8 20 4 19 -4 37 -8 39 -10z
m5528 10 c-3 -3 -12 -4 -19 -1 -8 3 -5 6 6 6 11 1 17 -2 13 -5z m-6264 -25
c-8 -8 -13 -7 -18 2 -5 8 -4 10 3 5 7 -4 12 -2 12 5 0 7 3 9 7 6 4 -4 2 -12
-4 -18z m5242 5 l-60 -13 60 4 60 4 -70 -16 c-38 -8 -103 -16 -142 -16 -40 -1
-73 -5 -73 -8 0 -14 -85 -15 -105 -2 -19 13 -19 13 0 14 11 0 90 11 175 23
173 26 250 31 155 10z m938 -17 c4 3 7 4 7 0 0 -18 -21 -14 -30 5 -10 21 -10
21 3 6 8 -10 17 -15 20 -11z m-6034 -51 l-2 -31 -4 30 c-3 17 -12 39 -21 50
-17 20 -17 20 6 1 15 -13 22 -29 21 -50z m675 49 c-4 -8 -7 -15 -9 -15 -2 0
-5 7 -9 15 -3 9 0 15 9 15 9 0 12 -6 9 -15z m64 -3 c-23 -3 -27 -9 -31 -40 -3
-34 -4 -34 -5 9 l-2 46 33 -6 c31 -5 31 -6 5 -9z m5242 4 c0 -8 -7 -21 -15
-29 -8 -8 -11 -17 -8 -21 12 -12 -12 -5 -31 9 -19 14 -19 15 -1 35 21 23 55
27 55 6z m-6333 -2 c-3 -3 -12 -4 -19 -1 -8 3 -5 6 6 6 11 1 17 -2 13 -5z
m290 0 c-3 -3 -12 -4 -19 -1 -8 3 -5 6 6 6 11 1 17 -2 13 -5z m560 -56 c-2
-13 -4 -3 -4 22 0 25 2 35 4 23 2 -13 2 -33 0 -45z m306 45 c-7 -2 -19 -2 -25
0 -7 3 -2 5 12 5 14 0 19 -2 13 -5z m3350 1 c26 -4 44 -11 41 -16 -3 -5 3 -4
13 3 16 9 52 5 194 -25 96 -20 190 -36 209 -37 25 -1 13 -5 -40 -16 -116 -24
-209 -21 -335 10 -145 36 -151 37 -218 44 l-58 6 38 18 c41 19 85 23 156 13z
m-3325 -104 c-2 -93 -4 -100 -23 -100 -17 0 -18 2 -5 11 11 7 4 8 -25 4 -31
-4 -36 -3 -20 5 17 9 16 10 -10 6 -16 -2 -48 -1 -70 4 -22 4 -32 8 -22 9 9 0
17 6 17 12 0 5 -4 8 -9 4 -5 -3 -12 -1 -16 5 -4 6 -11 7 -17 4 -7 -5 -9 -1 -5
9 4 12 1 15 -14 12 -11 -2 -17 0 -14 6 4 5 -4 9 -17 10 -13 0 -18 3 -13 5 6 2
40 -2 75 -10 37 -8 53 -14 38 -15 -16 -1 -28 -6 -28 -12 0 -5 5 -7 10 -4 6 4
19 1 28 -6 9 -7 14 -9 10 -5 -15 18 24 33 61 25 61 -14 61 -14 61 56 0 36 2
65 5 65 3 0 5 -45 3 -100z m44 70 c-2 -16 -6 -30 -8 -30 -2 0 -4 14 -4 30 0
17 4 30 8 30 5 0 7 -13 4 -30z m3491 23 c-7 -2 -19 -2 -25 0 -7 3 -2 5 12 5
14 0 19 -2 13 -5z m72 -2 c-3 -6 10 -8 32 -5 29 4 35 3 23 -5 -12 -9 -9 -10
12 -5 16 3 36 3 45 -1 10 -4 34 -7 54 -6 22 2 42 -4 52 -13 9 -9 24 -13 34
-10 14 4 15 4 3 -4 -17 -11 -113 -1 -232 25 -57 12 -75 19 -62 24 27 11 46 11
39 0z m108 2 c-7 -2 -19 -2 -25 0 -7 3 -2 5 12 5 14 0 19 -2 13 -5z m-4206 -9
c-3 -3 -12 -4 -19 -1 -8 3 -5 6 6 6 11 1 17 -2 13 -5z m630 -5 l63 -11 0 -69
c0 -38 -3 -69 -7 -69 -5 0 -7 29 -5 64 l4 65 -39 6 c-47 9 -101 23 -89 24 5 1
38 -4 73 -10z m928 3 c51 -10 40 -16 -65 -37 -47 -9 -128 -27 -182 -40 -92
-23 -100 -23 -185 -9 -48 7 -91 14 -95 14 -5 0 -8 5 -8 10 0 6 10 10 22 10 12
0 65 9 118 19 52 11 118 24 145 29 61 12 195 13 250 4z m2718 1 c-7 -2 -21 -2
-30 0 -10 3 -4 5 12 5 17 0 24 -2 18 -5z m-4366 -9 c-3 -3 -12 -4 -19 -1 -8 3
-5 6 6 6 11 1 17 -2 13 -5z m50 -10 c-3 -3 -12 -4 -19 -1 -8 3 -5 6 6 6 11 1
17 -2 13 -5z m5230 0 c-3 -3 -12 -4 -19 -1 -8 3 -5 6 6 6 11 1 17 -2 13 -5z
m-5174 -11 c-7 -2 -19 -2 -25 0 -7 3 -2 5 12 5 14 0 19 -2 13 -5z m124 1 c-3
-3 -12 -4 -19 -1 -8 3 -5 6 6 6 11 1 17 -2 13 -5z m678 -7 l50 -12 3 -69 c3
-67 3 -68 -20 -62 -13 3 -31 6 -41 6 -10 0 -16 4 -13 8 3 5 -9 7 -27 5 -27 -3
-29 -2 -12 7 17 9 16 10 -7 5 l-28 -5 0 65 c0 74 -1 74 95 52z m3045 -33 c210
-41 216 -48 55 -60 -56 -5 -105 -1 -165 11 -102 20 -240 52 -295 68 l-40 11
50 7 c88 12 197 2 395 -37z m1403 39 c-7 -2 -19 -2 -25 0 -7 3 -2 5 12 5 14 0
19 -2 13 -5z m-5168 -12 l30 -7 -27 -6 c-16 -3 -28 -2 -28 3 0 4 -10 10 -22
12 -19 3 -19 4 -3 4 11 1 34 -2 50 -6z m1785 3 c0 -4 -206 -51 -345 -79 -119
-25 -136 -26 -200 -15 -119 21 -116 24 67 62 156 32 188 36 326 35 83 0 152
-2 152 -3z m3327 0 c-3 -3 -12 -4 -19 -1 -8 3 -5 6 6 6 11 1 17 -2 13 -5z
m-1563 -67 l199 -43 -146 -28 -146 -28 -158 36 c-278 64 -298 69 -312 76 -7 4
20 10 60 14 41 4 108 12 149 20 46 7 91 9 115 5 22 -5 129 -28 239 -52z m1513
57 c-3 -3 -12 -4 -19 -1 -8 3 -5 6 6 6 11 1 17 -2 13 -5z m-5270 -10 c-3 -3
-12 -4 -19 -1 -8 3 -5 6 6 6 11 1 17 -2 13 -5z m108 0 c13 -5 14 -8 3 -15 -7
-5 -20 -8 -28 -8 -10 0 -8 3 5 10 14 6 7 8 -25 4 -32 -4 -39 -2 -25 4 24 12
48 13 70 5z m179 -3 c3 -4 -6 -6 -19 -3 -14 2 -25 6 -25 8 0 8 39 4 44 -5z
m156 -1 c0 -5 -5 -10 -11 -10 -5 0 -7 5 -4 10 3 6 8 10 11 10 2 0 4 -4 4 -10z
m37 -12 c-3 -8 -6 -5 -6 6 -1 11 2 17 5 13 3 -3 4 -12 1 -19z m618 2 l60 -12
1 -67 0 -67 -75 16 -76 17 0 66 c0 54 3 66 15 63 8 -2 42 -9 75 -16z m1000 5
l-60 -12 65 -3 c36 -1 84 -1 108 0 41 1 107 -8 100 -15 -2 -2 -108 -27 -236
-55 l-233 -52 -132 23 c-73 12 -136 26 -140 30 -5 4 13 10 40 14 26 4 122 24
213 45 122 28 187 38 250 38 l85 0 -60 -13z m2392 -1 c-3 -3 -12 -4 -19 -1 -8
3 -5 6 6 6 11 1 17 -2 13 -5z m656 -1 c-7 -2 -19 -2 -25 0 -7 3 -2 5 12 5 14
0 19 -2 13 -5z m-4973 -13 c-34 -11 -60 -11 -35 0 11 5 29 8 40 8 16 0 15 -2
-5 -8z m4226 0 c-16 -5 -33 -15 -38 -22 -6 -10 -10 -10 -17 2 -13 19 5 30 49
29 l35 -1 -29 -8z m697 3 c-7 -2 -19 -2 -25 0 -7 3 -2 5 12 5 14 0 19 -2 13
-5z m294 1 c-3 -3 -12 -4 -19 -1 -8 3 -5 6 6 6 11 1 17 -2 13 -5z m-4844 -11
c-7 -2 -19 -2 -25 0 -7 3 -2 5 12 5 14 0 19 -2 13 -5z m4504 1 c-3 -3 -12 -4
-19 -1 -8 3 -5 6 6 6 11 1 17 -2 13 -5z m290 0 c-3 -3 -12 -4 -19 -1 -8 3 -5
6 6 6 11 1 17 -2 13 -5z m-5050 -10 c-3 -3 -12 -4 -19 -1 -8 3 -5 6 6 6 11 1
17 -2 13 -5z m1021 -16 l52 -11 0 -69 c0 -52 3 -68 14 -68 8 0 20 -2 28 -3 7
-2 10 -2 6 0 -5 3 -8 31 -8 64 l0 60 53 -7 c28 -4 54 -8 56 -10 4 -4 1 -207
-4 -212 -3 -3 -158 28 -455 92 -83 18 -147 36 -143 41 4 4 2 5 -5 1 -17 -10
-194 23 -186 35 3 5 -10 6 -28 3 -26 -4 -30 -3 -18 6 12 8 6 10 -25 6 -22 -3
-31 -3 -20 0 31 9 39 22 11 19 -19 -2 -23 1 -19 13 4 10 2 13 -5 8 -7 -4 -12
-2 -12 3 0 15 42 14 109 -3 51 -14 369 -71 450 -82 25 -3 32 -1 28 9 -3 8 -1
35 4 62 7 36 6 51 -3 58 -14 9 32 4 120 -15z m3002 -43 c0 -61 1 -65 23 -64
12 0 31 4 42 9 18 8 17 9 -7 9 -26 1 -28 4 -26 44 l1 42 4 -37 c4 -31 8 -38
26 -37 20 0 21 1 3 8 -14 5 -16 10 -7 15 9 6 9 11 -1 23 -12 15 -11 15 9 3 12
-8 20 -17 17 -21 -6 -11 7 -39 18 -39 5 0 6 5 3 10 -3 6 -1 10 4 10 6 0 11 -5
11 -11 0 -5 4 -7 10 -4 5 3 7 0 4 -8 -3 -9 3 -17 16 -20 12 -3 19 -10 15 -16
-4 -7 4 -11 22 -10 15 0 23 3 16 5 -7 3 -9 12 -6 20 3 8 -3 22 -14 32 -10 9
-15 14 -10 11 5 -4 28 -5 50 -2 40 4 41 4 22 -12 -12 -9 -21 -11 -23 -5 -7 21
-19 9 -14 -15 3 -19 11 -25 31 -26 14 -1 -12 -9 -59 -20 -47 -10 -101 -16
-120 -13 -25 3 -30 2 -15 -4 16 -7 11 -10 -26 -16 -25 -4 -54 -4 -65 0 -14 4
-15 3 -6 -4 11 -7 5 -11 -21 -16 -19 -3 -43 -4 -53 0 -14 4 -15 3 -5 -4 16
-11 -72 -27 -91 -16 -6 4 -8 3 -5 -3 8 -13 -195 -56 -225 -48 -15 4 -19 3 -10
-3 15 -10 -149 -48 -172 -39 -8 3 -17 1 -20 -6 -9 -23 -6 101 4 153 6 30 12
55 14 58 5 5 166 40 234 51 52 8 52 8 51 -18 0 -23 -1 -23 -8 -7 -7 19 -8 18
-14 -5 -5 -18 -9 -21 -16 -10 -6 9 -11 10 -15 3 -4 -6 -13 -9 -21 -5 -12 4
-15 -4 -17 -33 -1 -37 -2 -36 -8 11 l-7 50 -1 -58 c-2 -51 0 -58 16 -53 9 3
29 8 44 12 16 3 26 9 23 13 -2 4 2 8 10 8 8 0 15 -4 15 -8 0 -9 -75 -33 -212
-69 -49 -13 -88 -27 -88 -31 0 -4 25 -1 54 8 50 14 56 14 71 -1 20 -20 22 -20
22 -1 0 8 -5 15 -11 16 -6 0 -2 4 9 9 11 5 35 6 53 3 25 -4 32 -2 32 11 0 9 5
16 10 16 6 0 9 -3 9 -7 -4 -22 2 -34 14 -30 6 2 20 0 30 -5 16 -8 18 -6 15 19
-2 21 -8 27 -23 25 -18 -2 -19 -2 -2 8 9 6 20 9 25 6 4 -2 6 29 4 68 l-3 73
38 6 c64 11 99 9 85 -5 -14 -14 -17 -72 -3 -64 4 3 6 -6 3 -20 -4 -24 -2 -26
19 -19 13 4 25 8 27 10 1 1 3 29 4 63 l2 61 40 7 c23 4 49 8 58 9 10 1 21 4
24 8 4 4 16 7 26 7 16 0 18 -9 18 -65z m222 26 c2 -22 0 -37 -4 -35 -8 5 -11
74 -4 74 2 0 6 -18 8 -39z m185 17 c-3 -8 -6 -5 -6 6 -1 11 2 17 5 13 3 -3 4
-12 1 -19z m286 15 c-7 -2 -19 -2 -25 0 -7 3 -2 5 12 5 14 0 19 -2 13 -5z
m290 0 c-7 -2 -21 -2 -30 0 -10 3 -4 5 12 5 17 0 24 -2 18 -5z m-606 -25 c-3
-8 -6 -5 -6 6 -1 11 2 17 5 13 3 -3 4 -12 1 -19z m266 15 c-7 -2 -19 -2 -25 0
-7 3 -2 5 12 5 14 0 19 -2 13 -5z m-1672 -33 c79 -17 193 -42 253 -56 l108
-26 -6 -37 c-4 -20 -9 -69 -13 -108 -5 -67 -7 -72 -27 -68 -12 3 -100 21 -196
41 -96 19 -176 37 -178 39 -18 17 169 17 238 0 l25 -7 -21 19 c-12 11 -100 41
-198 69 l-177 49 7 35 c4 19 8 44 10 55 1 11 3 21 3 23 2 6 37 0 172 -28z
m1609 20 c-34 -11 -60 -11 -35 0 11 5 29 8 40 8 16 0 15 -2 -5 -8z m-4553 -6
c-3 -3 -12 -4 -19 -1 -8 3 -5 6 6 6 11 1 17 -2 13 -5z m4160 -31 c-3 -10 -5
-4 -5 12 0 17 2 24 5 18 2 -7 2 -21 0 -30z m583 20 c-35 -7 -69 -11 -75 -9 -5
2 -1 5 10 5 15 1 17 3 6 10 -8 5 13 8 55 8 l69 0 -65 -14z m-4687 0 c-7 -2
-19 -2 -25 0 -7 3 -2 5 12 5 14 0 19 -2 13 -5z m1290 -53 c65 -13 127 -30 138
-39 15 -13 20 -35 25 -113 6 -80 4 -98 -7 -98 -8 0 -83 14 -166 32 l-153 33 0
36 c0 20 3 38 6 41 3 4 25 -2 49 -13 53 -24 265 -80 265 -71 0 4 -60 25 -133
46 -190 57 -177 48 -177 123 0 57 2 63 18 55 9 -5 70 -19 135 -32z m3040 33
c-7 -2 -21 -2 -30 0 -10 3 -4 5 12 5 17 0 24 -2 18 -5z m222 -8 c-27 -7 -59
-13 -70 -13 -11 0 3 6 30 13 28 7 59 13 70 13 11 0 -2 -6 -30 -13z m-828 -57
c-2 -13 -4 -3 -4 22 0 25 2 35 4 23 2 -13 2 -33 0 -45z m730 36 c-3 -3 -12 -4
-19 -1 -8 3 -5 6 6 6 11 1 17 -2 13 -5z m-2880 -20 c-3 -3 -12 -4 -19 -1 -8 3
-5 6 6 6 11 1 17 -2 13 -5z m2780 0 c-3 -3 -12 -4 -19 -1 -8 3 -5 6 6 6 11 1
17 -2 13 -5z m-182 -14 c-3 -5 -10 -10 -16 -10 -5 0 -9 5 -9 10 0 6 7 10 16
10 8 0 12 -4 9 -10z m132 4 c-3 -3 -12 -4 -19 -1 -8 3 -5 6 6 6 11 1 17 -2 13
-5z m-2807 -11 c-8 -3 -18 -10 -21 -15 -3 -5 -9 -3 -12 6 -5 12 0 16 21 15 16
0 21 -3 12 -6z m2763 0 c-7 -2 -19 -2 -25 0 -7 3 -2 5 12 5 14 0 19 -2 13 -5z
m-46 -9 c-3 -3 -12 -4 -19 -1 -8 3 -5 6 6 6 11 1 17 -2 13 -5z m-2730 -71 c-3
-10 -5 -2 -5 17 0 19 2 27 5 18 2 -10 2 -26 0 -35z m10 -100 c-2 -16 -4 -5 -4
22 0 28 2 40 4 28 2 -13 2 -35 0 -50z m321 60 c-10 -2 -28 -2 -40 0 -13 2 -5
4 17 4 22 1 32 -1 23 -4z m-2033 -13 c-156 -9 -489 -9 -585 0 -41 4 99 7 315
7 254 0 348 -3 270 -7z m1942 4 c-3 -3 -12 -4 -19 -1 -8 3 -5 6 6 6 11 1 17
-2 13 -5z m3753 -4 c-83 -10 -501 -10 -600 0 -42 4 86 7 295 7 208 0 342 -3
305 -7z m-3825 -10 c-27 -12 -43 -12 -25 0 8 5 22 9 30 9 10 0 8 -3 -5 -9z
m218 3 c-7 -2 -19 -2 -25 0 -7 3 -2 5 12 5 14 0 19 -2 13 -5z m-50 -10 c-7 -2
-19 -2 -25 0 -7 3 -2 5 12 5 14 0 19 -2 13 -5z m-96 -19 c-3 -3 -12 -4 -19 -1
-8 3 -5 6 6 6 11 1 17 -2 13 -5z m-180 -40 c-3 -3 -12 -4 -19 -1 -8 3 -5 6 6
6 11 1 17 -2 13 -5z m1173 -241 c148 -5 190 -9 150 -14 -76 -10 -886 -11
-1001 -1 l-94 7 165 5 c278 9 565 10 780 3z m-2132 -130 c-21 -2 -57 -2 -80 0
-24 2 -7 4 37 4 44 0 63 -2 43 -4z m3695 0 c-29 -2 -77 -2 -105 0 -29 2 -6 3
52 3 58 0 81 -1 53 -3z m-1263 -71 l165 -7 -175 -6 c-374 -14 -1411 -7 -1395
9 18 18 1021 21 1405 4z"/>
<path d="M5229 8173 c-13 -16 -12 -17 4 -4 9 7 17 15 17 17 0 8 -8 3 -21 -13z"/>
<path d="M3659 7813 c-13 -16 -12 -17 4 -4 16 13 21 21 13 21 -2 0 -10 -8 -17
-17z"/>
<path d="M2788 5813 c7 -3 16 -2 19 1 4 3 -2 6 -13 5 -11 0 -14 -3 -6 -6z"/>
<path d="M5208 5793 c12 -2 32 -2 45 0 12 2 2 4 -23 4 -25 0 -35 -2 -22 -4z"/>
<path d="M4989 5639 c-1 -19 -1 -37 0 -41 0 -5 -3 -8 -9 -8 -5 0 -10 -7 -10
-15 0 -8 5 -15 10 -15 6 0 10 7 10 15 0 7 6 18 14 22 7 4 15 21 18 36 3 15 3
25 0 22 -3 -2 -11 0 -19 6 -10 9 -13 5 -14 -22z"/>
<path d="M5376 5172 c-2 -4 -1 -14 5 -22 7 -12 9 -10 9 8 0 23 -5 28 -14 14z"/>
<path d="M4985 5830 c10 -11 20 -20 23 -20 3 0 -3 9 -13 20 -10 11 -20 20 -23
20 -3 0 3 -9 13 -20z"/>
<path d="M5045 5770 c10 -11 20 -20 23 -20 3 0 -3 9 -13 20 -10 11 -20 20 -23
20 -3 0 3 -9 13 -20z"/>
<path d="M6215 4930 c4 -6 11 -8 16 -5 14 9 11 15 -7 15 -8 0 -12 -5 -9 -10z"/>
<path d="M3863 4543 c9 -2 23 -2 30 0 6 3 -1 5 -18 5 -16 0 -22 -2 -12 -5z"/>
<path d="M3338 4523 c7 -3 16 -2 19 1 4 3 -2 6 -13 5 -11 0 -14 -3 -6 -6z"/>
<path d="M3858 4233 c6 -2 18 -2 25 0 6 3 1 5 -13 5 -14 0 -19 -2 -12 -5z"/>
<path d="M3648 4203 c7 -3 16 -2 19 1 4 3 -2 6 -13 5 -11 0 -14 -3 -6 -6z"/>
<path d="M7170 4668 c0 -7 5 -20 10 -28 8 -12 10 -9 10 13 0 15 -4 27 -10 27
-5 0 -10 -6 -10 -12z"/>
<path d="M7048 4663 c-22 -3 -28 -10 -28 -28 0 -31 16 -40 29 -18 10 17 10 17
11 1 0 -10 5 -18 10 -18 17 0 11 28 -7 40 -12 8 -13 10 -3 7 8 -2 20 -14 26
-26 11 -21 12 -22 17 -2 3 14 -1 22 -14 26 -11 4 -17 11 -14 16 4 5 5 8 3 8
-2 -1 -15 -4 -30 -6z"/>
<path d="M7175 4611 c-3 -5 -1 -12 5 -16 5 -3 10 1 10 9 0 18 -6 21 -15 7z"/>
<path d="M7074 4343 c2 -10 6 -17 10 -16 15 3 16 11 2 22 -12 10 -14 9 -12 -6z"/>
<path d="M7099 4313 c-13 -16 -12 -17 4 -4 9 7 17 15 17 17 0 8 -8 3 -21 -13z"/>
<path d="M7156 4295 c-3 -8 -1 -15 4 -15 6 0 10 7 10 15 0 8 -2 15 -4 15 -2 0
-6 -7 -10 -15z"/>
<path d="M6865 4140 c4 -6 10 -8 15 -5 5 3 11 1 15 -5 7 -12 25 -4 25 11 0 5
-14 9 -31 9 -18 0 -28 -4 -24 -10z"/>
<path d="M6168 4063 c7 -3 16 -2 19 1 4 3 -2 6 -13 5 -11 0 -14 -3 -6 -6z"/>
<path d="M5996 4043 c5 -5 12 -12 16 -18 4 -6 8 -2 8 8 0 9 -7 17 -17 17 -9 0
-12 -3 -7 -7z"/>
<path d="M5508 3793 c7 -3 16 -2 19 1 4 3 -2 6 -13 5 -11 0 -14 -3 -6 -6z"/>
<path d="M8266 3414 c-9 -23 -8 -26 7 -18 7 5 6 0 -3 -11 -13 -17 -13 -18 1
-13 9 4 22 1 29 -5 10 -9 12 -9 7 4 -3 9 -1 22 4 30 7 12 9 12 9 0 0 -8 3 -11
6 -8 10 10 -16 37 -36 37 -10 0 -21 -7 -24 -16z"/>
<path d="M8194 3150 c0 -69 1 -106 3 -82 2 23 8 42 14 42 5 0 9 11 9 25 0 14
-4 25 -10 25 -5 0 -11 26 -13 58 -2 31 -3 1 -3 -68z"/>
<path d="M8236 3017 c3 -10 9 -15 12 -12 3 3 0 11 -7 18 -10 9 -11 8 -5 -6z"/>
<path d="M7920 3200 c0 -5 5 -10 11 -10 5 0 7 5 4 10 -3 6 -8 10 -11 10 -2 0
-4 -4 -4 -10z"/>
<path d="M8141 3154 c0 -11 3 -14 6 -6 3 7 2 16 -1 19 -3 4 -6 -2 -5 -13z"/>
<path d="M5248 2933 c7 -3 16 -2 19 1 4 3 -2 6 -13 5 -11 0 -14 -3 -6 -6z"/>
<path d="M7328 2483 c7 -3 16 -2 19 1 4 3 -2 6 -13 5 -11 0 -14 -3 -6 -6z"/>
<path d="M3171 2353 c0 -16 3 -21 6 -13 3 8 12 21 21 28 14 10 13 12 -6 12
-18 0 -22 -6 -21 -27z"/>
<path d="M3368 2333 c7 -3 16 -2 19 1 4 3 -2 6 -13 5 -11 0 -14 -3 -6 -6z"/>
<path d="M6603 2294 c0 -8 6 -14 14 -14 7 0 13 4 13 9 0 5 -6 11 -13 14 -8 3
-14 -1 -14 -9z"/>
<path d="M6223 2223 c9 -2 23 -2 30 0 6 3 -1 5 -18 5 -16 0 -22 -2 -12 -5z"/>
<path d="M6311 2214 c0 -11 3 -14 6 -6 3 7 2 16 -1 19 -3 4 -6 -2 -5 -13z"/>
<path d="M6650 2173 c8 -3 18 -11 22 -17 5 -7 8 -4 8 7 0 11 -7 17 -22 16 -16
0 -18 -2 -8 -6z"/>
<path d="M6730 2149 c-11 -7 -4 -8 25 -3 50 8 58 14 19 14 -16 0 -36 -5 -44
-11z"/>
<path d="M6028 1993 c6 -2 18 -2 25 0 6 3 1 5 -13 5 -14 0 -19 -2 -12 -5z"/>
<path d="M5880 2040 c8 -5 26 -9 40 -9 23 0 23 1 5 9 -11 5 -29 9 -40 9 -17 1
-17 -1 -5 -9z"/>
</g>
</svg>
